<?xml version="1.0" encoding="utf-8"?>
<!-- Generator: Adobe Illustrator 26.3.1, SVG Export Plug-In . SVG Version: 6.00 Build 0)  -->
<svg version="1.1" id="Layer_1" xmlns="http://www.w3.org/2000/svg" xmlns:xlink="http://www.w3.org/1999/xlink" x="0px" y="0px"
	 viewBox="0 0 2400 125" style="enable-background:new 0 0 2400 125;" xml:space="preserve">
<style type="text/css">
	.st0{fill-rule:evenodd;clip-rule:evenodd;fill:#E6730A;}
</style>
<path class="st0" d="M2206.5,66.3c-2.2-5.2-10.2-5.9-22.1-4.7c-2.3,0.2-4.7-0.7-6.7-0.4c-0.7,0.1-1.3,0.5-2.3,0.7
	c-0.5-0.3-1-0.6-1.5-0.8c-1.2,0.1-1.1,0.1-1.4,0.6c-2.3,0.4-3.6-0.1-5.1-0.6c-2.2,1-19,0.7-23.2,1.1l-3.7-0.4
	c-0.8,0.1-2.7,0.5-3.9,0.5l-4.8-0.3c-13.5,1.7-27.9,0-42.6,1c-1.2-0.1-2.5-0.3-3.7-0.4c-1.6-0.1-6.1,0.2-7.1,0.3
	c-5,0.5-17.4-0.8-21,0.8c-3.1-0.1-4.3-0.5-6.1-1c-0.9,0.4-1.7,0.8-2.6,1.3c-6.3,0.8-19.7-1-23,0.3c-6.6-0.9-9.2-0.7-16.1-0.8
	c-0.2-0.2-0.5-0.4-0.7-0.5c-1.9-0.3-7.1,0-9.2,0.1c-1.8,0.1-3.2-0.4-4.3-0.5c-1.9,0.1-3.8,0.2-5.7,0.3c-1.8-0.1-3.7-0.5-5.1-0.6
	l-3.1,0.6l-6.7-0.4c-2,0.2-4,0.4-6,0.6c-1.3-0.1-2.7-0.2-4-0.3c-2.6-0.1-10.1,0.5-11.5,0.9c-5.9-0.6-11.5-0.5-17.3-0.2
	c-1.4-0.2-2.8-0.3-4.3-0.5c-1.7,0.2-3.5,0.4-5.2,0.6c-1.5-0.1-3.6-0.7-5-0.9c-1.4-0.2-4.4,0.3-6,0.3c-2.1,0-4.6-0.3-5.9-0.5
	c-1.2-0.2-3,0.3-3.8,0.3c-1.7,0.1-2.4-0.4-3.2-0.6c-2.2-0.4-3,0.3-3.8,0.4c-1.6,0.2-3-0.5-3.7-0.6c-1.9-0.2-2,0.6-3.9,0.5
	c-1.8-0.2-3.5-0.5-5.3-0.7c-0.7,0.2-1.5,0.3-2.2,0.5c-3.1-0.1-6.1-0.1-9.2-0.2c-1.1,0.1-2.2,0.3-3.3,0.4c-0.1,0-0.2,0-0.3,0
	c-0.3-0.1-0.5-0.3-0.8-0.4c-2.6-0.2-7.7,0.1-9.5,0.2l-3.8-0.3l-5.4,0.2c-18.3-2.4-57.3-2.6-76.7-1.3l-10.2-0.3
	c-1.1,0.1-2.3,0.6-3.9,0.5c-1.3-0.1-3.5-0.7-5.3-0.7c-1.8,0.1-3.6,0.2-5.5,0.3c-1.5-0.1-4.3-0.6-5.6-0.5l-3.3,0.6
	c-3.8,0.3-7.2-0.3-10.6,0.2c-0.4,0.2-0.8,0.4-1.2,0.6c-1.3,0.2-2.3-0.3-4-0.2c-4.6,0.3-11.2,0.6-14.5,0.8
	c-5.7,0.4-12.9,0.8-18.4,0.5c-2.6-0.2-6.4,0.2-7.8,0.4c-2.3,0.3-2.9-0.4-4.3-0.4c-3.3,0.3-6.7,0.5-10,0.8c-3.9-0.1-7.7-0.1-11.6-0.2
	c-0.3,0.1-0.5,0.3-0.8,0.4c-3.9,0.3-9.7-1.1-14.1,0.1c-2.4-0.6-9.6-1-12.2-0.4c-1.7-0.3-3.4-0.7-5.1-1c-0.5,0.3-0.9,0.5-1.4,0.8
	c-4.4-0.4-27.4-1.8-29.7-0.7c-3-0.3-8.3-0.8-10.5-1c-0.9,0.1-1.8,0.3-2.7,0.4c-0.4-0.2-0.7-0.3-1.1-0.5c-1-0.1-5.9-0.1-6.8,0
	c-3.3,0.3-12.1,0.4-16.8,0.1l-7.6,0.2c-3.6-0.1-7.2-0.2-10.8-0.3c-0.9,0.1-1.8,0.5-3.2,0.3c-10.3-1.3-24.7,0.1-39.2-1.1
	c-2.8,0.1-5.6,0.3-8.4,0.4c-10-0.6-21.5-0.1-33.2-0.9h-12.7c-11.3-1.1-21.6-0.9-33.2-1.6c-2.4-0.1-5,0.7-6.5,0.6
	c-9.1-0.3-19.4-0.7-28.9-0.2c-4.3,0.2-7.8-0.4-11.9-0.1c-1.2,0.2-2.3,0.4-3.5,0.6c-2.3-0.1-5.6-1-8.1-0.7c-0.3,0.1-0.5,0.3-0.8,0.4
	c-1.8-0.1-3.6-0.2-5.4-0.3c-0.6,0.1-1.3,0.3-1.9,0.4c-0.9-0.1-2.3-0.6-3.2-0.6c-1.9,0.2-3.8,0.3-5.7,0.5c-4-0.3-9.2-0.5-13.2-0.3
	c-4.7,0.3-18.3-1.2-20.8,0.1c-3.4-0.4-6.6-1-10.8-0.8c-2.4,0.1-5.3,0.7-7.8,0.4l-2.4-0.5c-2.7-0.2-7.1,0.3-9.2,0.4l-3.2-0.4
	c-3.6,0.2-7.2,0.3-10.8,0.5c-0.5-0.2-1.1-0.4-1.6-0.6c-5.9-0.7-11.4,0.9-15.7-0.3c-2.3,0.6-8.2,0.9-11.9,0.5
	c-0.6-0.1-1.3-0.2-1.9-0.3c0,0,0,0,0,0c-2.5-0.2-5-0.5-7.6-0.7c-1.6,0.1-5.6,0.8-7.8,0.9c-3.1,0.2-6.7-0.4-9.7-0.2c0,0,0,0,0,0
	c-0.1,0-0.1,0-0.2,0c-0.1,0-0.2,0-0.4,0.1c-1.4,0.1-2.9,0.2-4.3,0.3c-0.5-0.2-1.1-0.3-1.6-0.5l-3.6,0.6c-1.2-0.1-2.4-0.2-3.7-0.1
	c-1.4,0.2-2.7,0.3-4.1,0.5c-1.3,0.1-2.3-0.6-4.1-0.4c-1.2,0.3-2.2,0.8-3.3,1.3c-2.1-0.6-4-1.1-6.3-1.8l-0.5-0.5
	c-0.9-0.2-16.9,0.7-21.1,0.4c-6.5-0.5-16.3-0.2-24.6,0.3c-2,0.1-2.7-0.3-3.8-0.4l-4.3,0.3c-2.1-0.2-4.5-0.4-6.5-0.5
	c-2.3-0.1-6.5,0.4-9.2,0.5c-4.2,0.2-9.1-0.3-12.4-0.4c-4.5-0.2-10.7,0-15.7-0.3c-4.5-0.3-9.9,0.3-13.2-0.5c-3,1.1-11.3,0.1-15.7,0.3
	c-2.3,0-4.7-0.1-7-0.1c-2.3,0.1-4.7,0.3-7,0.4c-1.6-0.1-3.2-0.3-4.9-0.4c-1.4,0.1-5,0.6-6.5,0.5c-4.9-0.3-11-0.6-16.8-0.3
	c-9.3,0.4-18.5-0.1-29.7-0.5c-3.2-0.1-6,0.4-9.5,0.2c-3.3-0.3-6.7-0.6-10-0.9c-3.4,0.1-9.1,0.1-12.4-0.2c-0.5-0.1-1.1-0.3-1.6-0.4
	c-6.3,0.3-14.1,0.1-21.4-0.3c-2.5-0.1-8.7,0.1-11.1,0.5c-3.7-0.9-4.3,0.4-7.8-0.1c-2.5-0.3-7.2-0.6-10-0.8c-1.3,0.2-2.5,0.3-3.8,0.5
	c-7.4-0.7-14.6-0.3-21.9-0.4C845.5,54,835,54.4,822.8,54c-1.2-0.5-1.4-0.2-2.7,0.2c-4.5-0.8-13-0.1-18.4-0.4
	c-12.3-0.7-21.9-0.5-32.7-1.3c-4.8-0.4-13.6,0.1-17.8-0.3c-1.7,0.1-3.4,0.3-5.1,0.4c-4.1,0.2-12,0-15.1-0.6
	c-0.2,0.2-0.4,0.3-0.5,0.5c-2.5,1.3-13.4,0.1-15.7,0.2c-4,0.3-11,0.4-14.9,0.6l-3-0.4c-0.9,0.3-18.8,1.7-20.3,1.1
	c-1.9,0.5-4.6,0.6-6.6,0.6c-3.3-0.1-10.6,1.7-14.2,0.6c-0.6,0.2-1.1,0.5-1.7,0.7c-4.4-0.1-8.8-0.1-13.2-0.2
	c-2.7,0.1-5.4,0.2-8.2,0.3l-9.1-0.5c-16.4,1.1-34.2,0.6-50.4,0.6c-8.9,0-20.6-2.1-26.9-1.3c-0.4-0.2-0.8-0.4-1.3-0.6
	c-2.6,0.6-17.6,0.3-21.7,0.3c-2.3-0.1-4.7-0.2-7-0.2c-1,0.1-3.5,0.5-5.5,0.3c-1.1-0.2-2.3-0.4-3.4-0.6c-11.1,0.8-23.8,0-33.2-1
	c-2-0.2-3.5,0.3-4.6,0.3c-4.2,0.1-16.8-0.2-19.1-0.6c-0.4,0.2-0.8,0.3-1.2,0.5c-1.9,0.3-19,0.1-20.8-0.1c-2.3,0.8-9.7,0.8-12.5,0.1
	c-2.6,1-8.5-0.2-12.7,0.2c-6.2,0.6-13.9-1-21.3-0.9l-2.8,0.4c-2.1-0.2-7.6-0.9-10.5-0.6c-2.4,0.2-7.3-0.3-10-0.2
	c-3.8,0.1-6.8,0.4-9.3,0.5c-1.3,0.1-2.5-0.6-4.6-0.3c-5.8,0.9-17.5,1-24.8,1.3c-1.3,0.1-6.6-0.6-7-0.5c-3.5,0.5-9.7,0.4-13.6,0.1
	c-2.9-0.2-6.3,0.3-8.7,0.4c-4.6-0.7-18.4,0.4-24.1,0.4l-2.7-0.4c-2.1,0.2-4.5,0.5-6.8,0.4c-3.8,0.1-10,0.2-13.8,0.3
	c-4.6,0.2-9.1-0.6-13.6-0.3c-0.7,0.2-1.3,0.3-2,0.5c-1-0.1-2-0.2-2.9-0.4c-2.6-0.1-3.1,0.3-4.7,0.4c-2.1,0.1-3.8-0.4-5.1-0.4
	c-2.7-0.1-10,1.3-11.3-0.5c-0.4,0-0.9-0.1-1.3-0.1c-0.6,0.4-0.5,0.5-1.7,0.7c-0.6-0.6-1.8-0.8-3.7-0.9c-1.5,0.6-2.9,1.3-5.1,1.6
	c-1.2,1.9,1.2,3.2,1.8,4.7c2.2,5.2,10.2,5.9,22.1,4.7c2.3-0.2,4.7,0.7,6.7,0.4c0.7-0.1,1.3-0.5,2.3-0.7c0.5,0.3,1,0.6,1.5,0.8
	c1.2-0.1,1.1-0.1,1.4-0.6c2.3-0.4,3.6,0.1,5.1,0.6c2.2-1,19-0.7,23.2-1.1l3.7,0.4c0.8-0.1,2.7-0.5,3.9-0.5l4.8,0.3
	c13.5-1.7,27.9,0,42.6-1c1.2,0.1,2.5,0.3,3.7,0.4c1.6,0.1,6.1-0.2,7.1-0.3c5-0.5,17.4,0.8,21-0.8c3.1,0.1,4.3,0.5,6.1,1
	c0.9-0.4,1.7-0.8,2.6-1.3c6.3-0.8,19.7,1,23-0.3c6.6,0.9,9.2,0.7,16.1,0.8c0.2,0.2,0.5,0.3,0.7,0.5c1.9,0.3,7.1,0,9.2-0.1
	c1.8-0.1,3.2,0.4,4.3,0.5c1.9-0.1,3.8-0.2,5.7-0.3c1.8,0.1,3.7,0.5,5.1,0.6l3.1-0.6l6.7,0.4c2-0.2,4-0.4,6-0.6
	c1.3,0.1,2.7,0.2,4,0.3c2.6,0.1,10.1-0.5,11.5-0.9c5.9,0.6,11.5,0.5,17.3,0.2c1.4,0.2,2.8,0.3,4.3,0.5c1.7-0.2,3.5-0.4,5.2-0.6
	c1.5,0.1,3.6,0.7,5,0.9c1.4,0.2,4.4-0.3,6-0.3c2.1,0,4.6,0.3,5.9,0.5c1.2,0.2,3-0.3,3.8-0.3c1.7-0.1,2.4,0.4,3.2,0.6
	c2.2,0.4,3-0.3,3.8-0.4c1.6-0.2,3,0.5,3.7,0.6c1.9,0.2,2-0.6,3.9-0.5c1.8,0.2,3.5,0.5,5.3,0.7c0.7-0.2,1.5-0.3,2.2-0.5
	c3.1,0.1,6.1,0.1,9.2,0.2c1.1-0.1,2.2-0.3,3.3-0.4c0.1,0,0.2,0,0.3,0c0.3,0.1,0.5,0.3,0.8,0.4c2.6,0.2,7.7-0.1,9.5-0.2l3.8,0.3
	L549,64c18.3,2.4,57.3,2.6,76.7,1.3l10.2,0.3c1.1-0.1,2.3-0.6,3.9-0.5c1.3,0.1,3.5,0.7,5.3,0.7c1.8-0.1,3.6-0.2,5.5-0.3
	c1.5,0.1,4.3,0.6,5.6,0.5l3.3-0.6c3.8-0.3,7.2,0.3,10.6-0.2c0.4-0.2,0.8-0.4,1.2-0.6c1.3-0.2,2.3,0.3,4,0.2
	c4.6-0.3,11.2-0.6,14.5-0.8c5.7-0.4,12.9-0.8,18.4-0.5c2.6,0.2,6.4-0.2,7.8-0.4c2.3-0.3,2.9,0.4,4.3,0.4c3.3-0.3,6.7-0.5,10-0.8
	c3.9,0.1,7.7,0.1,11.6,0.2c0.3-0.1,0.5-0.3,0.8-0.4c3.9-0.3,9.7,1.1,14.1-0.1c2.4,0.6,9.6,1,12.2,0.4c1.7,0.3,3.4,0.7,5.1,1
	c0.5-0.3,0.9-0.5,1.4-0.8c4.4,0.4,27.4,1.8,29.7,0.7c3,0.3,8.3,0.8,10.5,1c0.9-0.1,1.8-0.3,2.7-0.4c0.4,0.2,0.7,0.3,1.1,0.5
	c1,0.1,5.9,0.1,6.8,0c3.3-0.3,12.1-0.4,16.8-0.1l7.6-0.2c3.6,0.1,7.2,0.2,10.8,0.3c0.9-0.1,1.8-0.5,3.2-0.3
	c10.3,1.3,24.7-0.1,39.2,1.1c2.8-0.1,5.6-0.3,8.4-0.4c10,0.6,21.5,0.1,33.2,0.9h12.7c11.3,1.1,21.6,0.9,33.2,1.6
	c2.4,0.1,5-0.7,6.5-0.6c9.1,0.3,19.4,0.7,28.9,0.2c4.3-0.2,7.8,0.4,11.9,0.1c1.2-0.2,2.3-0.4,3.5-0.6c2.3,0.1,5.6,1,8.1,0.7
	c0.3-0.1,0.5-0.3,0.8-0.4c1.8,0.1,3.6,0.2,5.4,0.3c0.6-0.1,1.3-0.3,1.9-0.4c0.9,0.1,2.3,0.6,3.2,0.6c1.9-0.2,3.8-0.3,5.7-0.5
	c4,0.3,9.2,0.5,13.2,0.3c4.7-0.3,18.3,1.2,20.8-0.1c3.4,0.4,6.6,1,10.8,0.8c2.4-0.1,5.3-0.7,7.8-0.4l2.4,0.5
	c2.7,0.2,7.1-0.3,9.2-0.4l3.2,0.4c3.6-0.2,7.2-0.3,10.8-0.5c0.5,0.2,1.1,0.4,1.6,0.6c5.9,0.7,11.4-0.9,15.7,0.3
	c2.3-0.6,8.2-0.9,11.9-0.5c0.6,0.1,1.3,0.2,1.9,0.3c0,0,0,0,0,0c2.5,0.2,5,0.5,7.6,0.7c1.6-0.1,5.6-0.8,7.8-0.9
	c3.1-0.2,6.7,0.4,9.7,0.2c0,0,0,0,0,0c0.1,0,0.1,0,0.2,0c0.1,0,0.2,0,0.4-0.1c1.4-0.1,2.9-0.2,4.3-0.3c0.5,0.2,1.1,0.3,1.6,0.5
	l3.6-0.6c1.2,0.1,2.4,0.2,3.7,0.1c1.4-0.2,2.7-0.3,4.1-0.5c1.3-0.1,2.3,0.6,4.1,0.4c1.2-0.3,2.2-0.8,3.3-1.3c2.1,0.6,4,1.1,6.3,1.8
	l0.5,0.5c0.9,0.2,16.9-0.7,21.1-0.4c6.5,0.5,16.3,0.2,24.6-0.3c2-0.1,2.7,0.3,3.8,0.4l4.3-0.3c2.1,0.2,4.5,0.4,6.5,0.5
	c2.3,0.1,6.5-0.4,9.2-0.5c4.2-0.2,9.1,0.3,12.4,0.4c4.5,0.2,10.7,0,15.7,0.3c4.5,0.3,9.9-0.3,13.2,0.5c3-1.1,11.3-0.1,15.7-0.3
	c2.3,0,4.7,0.1,7,0.1c2.3-0.1,4.7-0.3,7-0.4c1.6,0.1,3.2,0.3,4.9,0.4c1.4-0.1,5-0.6,6.5-0.5c4.9,0.3,11,0.6,16.8,0.3
	c9.3-0.4,18.5,0.1,29.7,0.5c3.2,0.1,6-0.4,9.5-0.2c3.3,0.3,6.7,0.6,10,0.9c3.4-0.1,9.1-0.1,12.4,0.2c0.5,0.1,1.1,0.3,1.6,0.4
	c6.3-0.3,14.1-0.1,21.4,0.3c2.5,0.1,8.7-0.1,11.1-0.5c3.7,0.9,4.3-0.4,7.8,0.1c2.5,0.3,7.2,0.6,10,0.8c1.3-0.2,2.5-0.3,3.8-0.5
	c7.4,0.7,14.6,0.3,21.9,0.4c13.2,0.2,23.7-0.1,35.9,0.2c1.2,0.5,1.4,0.2,2.7-0.2c4.5,0.8,13,0.1,18.4,0.4
	c12.3,0.7,21.9,0.5,32.7,1.3c4.8,0.4,13.6-0.1,17.8,0.3c1.7-0.1,3.4-0.3,5.1-0.4c4.1-0.2,12,0,15.1,0.6c0.2-0.2,0.4-0.3,0.5-0.5
	c2.5-1.3,13.4-0.1,15.7-0.2c4-0.3,11-0.4,14.9-0.6l3,0.4c0.9-0.3,18.8-1.7,20.3-1.1c1.9-0.5,4.6-0.6,6.6-0.6
	c3.3,0.1,10.6-1.7,14.2-0.6c0.6-0.2,1.1-0.5,1.7-0.7c4.4,0.1,8.8,0.1,13.2,0.2c2.7-0.1,5.4-0.2,8.2-0.3l9.1,0.5
	c16.4-1.1,34.2-0.6,50.4-0.6c8.9,0,20.6,2.1,26.9,1.3c0.4,0.2,0.8,0.4,1.3,0.6c2.6-0.6,17.6-0.3,21.7-0.3c2.3,0.1,4.7,0.2,7,0.2
	c1-0.1,3.5-0.5,5.5-0.3c1.1,0.2,2.3,0.4,3.4,0.6c11.1-0.8,23.8,0,33.2,1c2,0.2,3.5-0.3,4.6-0.3c4.2-0.1,16.8,0.2,19.1,0.6
	c0.4-0.2,0.8-0.3,1.2-0.5c1.9-0.3,19-0.1,20.8,0.1c2.3-0.8,9.7-0.8,12.5-0.1c2.6-1,8.5,0.2,12.7-0.2c6.2-0.6,13.9,1,21.3,0.9
	l2.8-0.4c2.1,0.2,7.6,0.9,10.5,0.6c2.4-0.2,7.3,0.3,10,0.2c3.8-0.1,6.8-0.4,9.3-0.5c1.3-0.1,2.5,0.6,4.6,0.3
	c5.8-0.9,17.5-1,24.8-1.3c1.3-0.1,6.6,0.6,7,0.5c3.5-0.5,9.7-0.4,13.6-0.1c2.9,0.2,6.3-0.3,8.7-0.4c4.6,0.7,18.4-0.4,24.1-0.4
	l2.7,0.4c2.1-0.2,4.5-0.5,6.8-0.4c3.8-0.1,10-0.2,13.8-0.3c4.6-0.2,9.1,0.6,13.6,0.3c0.7-0.2,1.3-0.3,2-0.5c1,0.1,2,0.2,2.9,0.4
	c2.6,0.1,3.1-0.3,4.7-0.4c2.1-0.1,3.8,0.4,5.1,0.4c2.7,0.1,10-1.3,11.3,0.5c0.4,0,0.9,0.1,1.3,0.1c0.6-0.4,0.5-0.5,1.7-0.7
	c0.6,0.6,1.8,0.8,3.7,0.9c1.5-0.6,2.9-1.3,5.1-1.6C2209.5,69.2,2207.1,67.8,2206.5,66.3z"/>
</svg>
